<svg width="508" height="232" viewBox="0 0 508 232" fill="none" xmlns="http://www.w3.org/2000/svg">
<path fill-rule="evenodd" clip-rule="evenodd" d="M0.5 0C0.223858 0 0 0.223858 0 0.5C0 0.776142 0.223857 1 0.5 1H507.5C507.776 1 508 0.776142 508 0.5C508 0.223858 507.776 0 507.5 0H0.5ZM0 33.5C0 33.2239 0.223858 33 0.5 33H507.5C507.776 33 508 33.2239 508 33.5C508 33.7761 507.776 34 507.5 34H0.5C0.223857 34 0 33.7761 0 33.5ZM0.5 66C0.223858 66 0 66.2239 0 66.5C0 66.7761 0.223857 67 0.5 67H507.5C507.776 67 508 66.7761 508 66.5C508 66.2239 507.776 66 507.5 66H0.5ZM0.5 99C0.223858 99 0 99.2239 0 99.5C0 99.7761 0.223857 100 0.5 100H507.5C507.776 100 508 99.7761 508 99.5C508 99.2239 507.776 99 507.5 99H0.5ZM0.5 132C0.223858 132 0 132.224 0 132.5C0 132.776 0.223857 133 0.5 133H507.5C507.776 133 508 132.776 508 132.5C508 132.224 507.776 132 507.5 132H0.5ZM0 165.5C0 165.224 0.223858 165 0.5 165H507.5C507.776 165 508 165.224 508 165.5C508 165.776 507.776 166 507.5 166H0.5C0.223857 166 0 165.776 0 165.5ZM0.5 198C0.223858 198 0 198.224 0 198.5C0 198.776 0.223857 199 0.5 199H507.5C507.776 199 508 198.776 508 198.5C508 198.224 507.776 198 507.5 198H0.5ZM0 231.5C0 231.224 0.223858 231 0.5 231H507.5C507.776 231 508 231.224 508 231.5C508 231.776 507.776 232 507.5 232H0.5C0.223857 232 0 231.776 0 231.5Z" fill="#717D86" fill-opacity="0.12"/>
</svg>
